<svg xmlns="http://www.w3.org/2000/svg" xmlns:xlink="http://www.w3.org/1999/xlink" xmlns:serif="http://www.serif.com/" viewBox="0 0 100 125" version="1.1" xml:space="preserve" style="" x="0px" y="0px" fill-rule="evenodd" clip-rule="evenodd" stroke-linejoin="round" stroke-miterlimit="2"><g><path stroke="#5ad0f9" fill="#5ad0f9" d="M8.016,66.68c-0.32,-0.356 -0.854,-1.729 -1.188,-3.051c-0.334,-1.321 -0.927,-3.274 -1.318,-4.339c-1.238,-3.37 -0.525,-4.111 5.56,-5.782c20.304,-5.575 24.795,-6.469 37.487,-7.462c5.783,-0.452 24.383,-2.548 25.505,-2.873c0.176,-0.051 -0.333,-0.526 -1.133,-1.055c-2.17,-1.436 -3.81,-3.215 -3.81,-4.132c0,-0.51 0.883,-1.689 2.36,-3.153c1.981,-1.963 2.497,-2.296 3.213,-2.068c0.872,0.276 13.232,7.195 16.242,9.091c2.412,1.52 4.068,3.204 4.066,4.137c-0.002,1.048 -0.989,2.655 -4.02,6.544c-1.347,1.729 -3.432,4.474 -4.634,6.101c-2.862,3.873 -5.357,6.794 -6.182,7.235c-0.495,0.265 -1.247,0.056 -2.988,-0.832c-2.803,-1.43 -3.62,-2.075 -3.618,-2.855c0,-0.325 0.674,-1.588 1.498,-2.809c0.823,-1.22 1.74,-2.672 2.038,-3.228l0.541,-1.01l-1.022,0.394c-0.926,0.356 -4.509,1.141 -17.549,3.844c-2.379,0.493 -8.369,1.493 -13.311,2.222c-4.942,0.73 -12.397,1.888 -16.566,2.574c-4.168,0.686 -9.077,1.436 -10.907,1.666c-1.83,0.23 -4.267,0.659 -5.415,0.953c-2.759,0.707 -4.143,0.675 -4.849,-0.112l-0,-0Zm3.698,-1.723c0.161,-0.161 -3.483,-3.66 -4.016,-3.857c-0.295,-0.109 0.831,3.187 1.407,4.119c0.185,0.3 2.255,0.092 2.609,-0.262l0,0Zm3.18,-0.838c0.137,-0.137 -1.207,-1.76 -2.989,-3.605c-3.642,-3.774 -4.647,-4.191 -4.83,-2.008c-0.109,1.312 -0.028,1.405 3.134,3.605c3.072,2.138 4.111,2.583 4.685,2.008Zm5.98,-0.868c0.287,-0.465 -6.073,-8.126 -6.745,-8.126c-0.911,0 -4.908,1.231 -4.908,1.512c0,0.611 2.089,2.704 4.764,4.774c2.588,2.002 2.971,2.18 4.735,2.199c1.056,0.013 2.025,-0.151 2.154,-0.359l-0,-0Zm59.52,-0.358c0.647,-0.715 0.627,-0.795 -0.686,-2.773c-0.744,-1.12 -1.42,-2.037 -1.503,-2.037c-0.083,0 -0.655,0.874 -1.272,1.941l-1.122,1.941l1.553,0.816c1.936,1.015 2.203,1.025 3.03,0.112l-0,0Zm-53.591,-0.391l2.606,-0.444l-2.618,-2.634c-1.439,-1.449 -3.278,-3.433 -4.085,-4.409l-1.468,-1.774l-2.696,0.695c-1.483,0.383 -2.731,0.837 -2.773,1.008c-0.142,0.575 7.3,8.257 7.872,8.127c0.305,-0.069 1.728,-0.325 3.162,-0.569Zm7.864,-1.282c0.315,-0.286 -1.624,-3.252 -3.826,-5.853c-1.351,-1.596 -2.234,-2.761 -1.962,-2.589c0.731,0.464 5.177,5.277 6.354,6.879c0.767,1.044 1.221,1.347 1.832,1.223c0.446,-0.091 1.428,-0.265 2.183,-0.386l1.371,-0.22l-2.481,-3.155c-1.364,-1.735 -3.026,-3.975 -3.693,-4.978c-1.304,-1.96 -1.445,-2.003 -4.333,-1.305c-1.221,0.295 -1.81,0.618 -1.736,0.952c0.088,0.389 -0.003,0.407 -0.396,0.081c-0.387,-0.321 -1.04,-0.277 -2.702,0.18c-1.205,0.331 -2.333,0.727 -2.506,0.879c-0.173,0.152 1.565,2.217 3.863,4.589l4.178,4.313l1.868,-0.251c1.027,-0.138 1.921,-0.3 1.986,-0.359l-0,0Zm49.371,-3.009l1.361,-1.906l-1.328,-1.237c-0.73,-0.68 -2.753,-3.109 -4.496,-5.396l-3.167,-4.16l-1.703,0.004c-0.937,0.003 -1.904,0.134 -2.149,0.29c-0.312,0.198 0.351,1.463 2.218,4.231c2.302,3.41 2.805,3.949 3.693,3.963c1.403,0.021 1.608,0.845 0.611,2.458l-0.836,1.352l1.817,1.588c2.026,1.771 1.821,1.832 3.979,-1.188l-0,0.001Zm-37.535,1.167c0.219,-0.219 -1.349,-2.735 -2.883,-4.622c-0.744,-0.916 -1.885,-2.446 -2.536,-3.402c-0.651,-0.955 -1.321,-1.822 -1.489,-1.926c-0.279,-0.172 -5.268,0.462 -5.528,0.703c-0.231,0.214 1.313,2.362 4.358,6.068l3.137,3.817l2.397,-0.245c1.318,-0.135 2.463,-0.312 2.544,-0.393Zm5.167,-0.781l1.592,-0.245l-0.9,-0.966c-0.494,-0.532 -1.861,-2.381 -3.037,-4.109c-3.569,-5.246 -3.014,-4.787 -5.533,-4.568c-1.22,0.106 -2.438,0.261 -2.707,0.345c-0.587,0.183 -0.014,1.061 3.885,5.953c1.487,1.866 2.704,3.59 2.704,3.83c0,0.292 0.402,0.366 1.202,0.222c0.661,-0.119 1.918,-0.327 2.794,-0.462l-0,0Zm4.601,-0.751c0.763,-0.126 1.386,-0.431 1.386,-0.678c0,-0.246 -1.164,-2.247 -2.588,-4.446c-1.423,-2.199 -2.588,-4.155 -2.588,-4.347c0,-0.313 -5.134,-0.031 -5.495,0.301c-0.074,0.068 0.437,0.839 1.135,1.715c0.698,0.875 2.056,2.715 3.018,4.087c0.962,1.373 1.907,2.496 2.1,2.496c0.193,0 0.351,0.25 0.351,0.555c0,0.603 0.554,0.669 2.681,0.317l-0,-0Zm6.721,-1.48l2.768,-0.608l-1.403,-1.594c-0.771,-0.877 -1.927,-2.578 -2.568,-3.78c-1.786,-3.351 -1.591,-3.288 -7.545,-2.422l-1.38,0.201l0.554,1.071c0.733,1.416 6.007,7.74 6.456,7.74c0.193,0 1.596,-0.274 3.118,-0.608l0,-0Zm6.565,-1.363c1.155,-0.244 2.218,-0.561 2.361,-0.704c0.143,-0.143 -0.013,-0.681 -0.345,-1.196c-0.333,-0.514 -0.874,-1.352 -1.202,-1.86c-1.106,-1.711 -0.179,-0.942 1.337,1.109c1.319,1.786 1.659,2.034 2.784,2.034c0.706,-0 1.279,-0.125 1.275,-0.277c-0.004,-0.153 -0.966,-2.025 -2.136,-4.16c-2.366,-4.315 -2.085,-4.152 -6.175,-3.586c-1.017,0.141 -2.972,0.364 -4.345,0.495c-1.372,0.132 -2.496,0.298 -2.496,0.37c0,0.235 2.702,3.974 4.141,5.73c0.773,0.943 1.406,1.9 1.406,2.126c-0,0.506 0.695,0.49 3.395,-0.081l-0,0Zm17.498,-0.886l1.191,-1.377l-2.331,-2.782c-1.282,-1.53 -3.757,-4.612 -5.499,-6.849c-1.742,-2.237 -3.872,-4.935 -4.732,-5.995l-1.565,-1.928l-1.209,1.172l-1.209,1.171l3.012,2.873c1.656,1.581 3.321,2.972 3.7,3.092c0.923,0.293 0.87,0.789 -0.142,1.316c-0.458,0.238 -0.893,0.484 -0.967,0.548c-0.074,0.063 0.217,0.562 0.647,1.109c0.43,0.546 0.782,0.873 0.782,0.726c-0,-0.148 0.695,0.62 1.544,1.706c0.85,1.086 2.015,2.464 2.59,3.063c0.575,0.598 1.419,1.637 1.876,2.308c0.456,0.671 0.896,1.221 0.976,1.223c0.08,0.001 0.681,-0.618 1.336,-1.376l0,0Zm2.985,-3.841l1.054,-1.522l-0.914,-0.789c-0.833,-0.72 -3.868,-4.509 -4.592,-5.735c-0.689,-1.164 0.888,0.237 2.654,2.358c1.016,1.22 2.216,2.547 2.668,2.948l0.82,0.73l0.703,-0.915c0.386,-0.503 0.652,-1.081 0.59,-1.284c-0.105,-0.347 -9.482,-6.039 -15.174,-9.212l-2.547,-1.42l3.434,4.207c3.023,3.702 10.093,12.114 10.207,12.144c0.023,0.005 0.517,-0.673 1.097,-1.51Z" style="" fill-rule="nonzero"/></g></svg>